<?xml version="1.0" standalone="no"?><!DOCTYPE svg PUBLIC "-//W3C//DTD SVG 1.1//EN" "http://www.w3.org/Graphics/SVG/1.1/DTD/svg11.dtd"><svg t="1573205479929" class="icon" viewBox="0 0 1024 1024" version="1.1" xmlns="http://www.w3.org/2000/svg" p-id="3753" xmlns:xlink="http://www.w3.org/1999/xlink" width="32" height="32"><defs><style type="text/css"></style></defs><path d="M477.946928 1016.778528c-259.719206 0-471.000214-211.281007-471.000214-471.000214 0-259.702833 211.281007-470.983841 471.000214-470.983841 14.184047 0 25.691125 11.508102 25.691125 25.691125l0 419.618986 419.618986 0c14.183024 0 25.690102 11.507078 25.690102 25.673729C948.948165 805.497521 737.667158 1016.778528 477.946928 1016.778528zM452.256826 126.94625C232.812905 140.259464 58.328965 323.040371 58.328965 545.778314c0 231.419673 188.233082 419.62001 419.618986 419.62001 222.75534 0 405.536246-174.484963 418.850483-393.927861L477.946928 571.470463c-14.183024 0-25.690102-11.507078-25.690102-25.691125L452.256826 126.94625z" p-id="3754"></path><path d="M991.765343 502.976486 546.456255 502.976486c-14.183024 0-25.690102-11.508102-25.690102-25.691125L520.766153 31.976272c0-14.183024 11.507078-25.691125 25.690102-25.691125 259.719206 0 471.000214 211.281007 471.000214 471.000214C1017.457492 491.469408 1005.950414 502.976486 991.765343 502.976486zM572.14738 451.595258 965.305715 451.595258C952.493921 240.647849 783.09479 71.248717 572.14738 58.4359L572.14738 451.595258z" p-id="3755"></path></svg>